<?xml version="1.0" encoding="utf-8"?>
<!-- Generator: Adobe Illustrator 25.2.1, SVG Export Plug-In . SVG Version: 6.00 Build 0)  -->
<svg version="1.1" xmlns="http://www.w3.org/2000/svg" xmlns:xlink="http://www.w3.org/1999/xlink" x="0px" y="0px"
	 viewBox="0 0 1920 1080" style="enable-background:new 0 0 1920 1080;" xml:space="preserve">
<style type="text/css">
	.st0{fill:#F1E2CF;}
	.st1{filter:url(#Adobe_OpacityMaskFilter);}
	.st2{opacity:0.38;mask:url(#SVGID_1_);fill:#F2F2F2;}
	.st3{filter:url(#Adobe_OpacityMaskFilter_1_);}
	.st4{opacity:0.5;mask:url(#SVGID_2_);fill:#F2F2F2;}
	.st5{filter:url(#Adobe_OpacityMaskFilter_2_);}
	.st6{opacity:0.5;mask:url(#SVGID_3_);fill:#F2F2F2;}
	.st7{filter:url(#Adobe_OpacityMaskFilter_3_);}
	.st8{opacity:0.41;mask:url(#SVGID_4_);fill:#F2F2F2;}
	.st9{filter:url(#Adobe_OpacityMaskFilter_4_);}
	.st10{opacity:0.5;mask:url(#SVGID_5_);fill:#F2F2F2;}
	.st11{filter:url(#Adobe_OpacityMaskFilter_5_);}
	.st12{opacity:0.41;mask:url(#SVGID_6_);fill:#F2F2F2;}
	.st13{filter:url(#Adobe_OpacityMaskFilter_6_);}
	.st14{opacity:0.55;mask:url(#SVGID_7_);fill:#F2F2F2;}
	.st15{filter:url(#Adobe_OpacityMaskFilter_7_);}
	.st16{opacity:0.55;mask:url(#SVGID_8_);fill:#F2F2F2;}
	.st17{filter:url(#Adobe_OpacityMaskFilter_8_);}
	.st18{opacity:0.52;mask:url(#SVGID_9_);fill:#F2F2F2;}
	.st19{filter:url(#Adobe_OpacityMaskFilter_9_);}
	.st20{opacity:0.52;mask:url(#SVGID_10_);fill:#F2F2F2;}
	.st21{filter:url(#Adobe_OpacityMaskFilter_10_);}
	.st22{opacity:0.52;mask:url(#SVGID_11_);fill:#F2F2F2;}
	.st23{filter:url(#Adobe_OpacityMaskFilter_11_);}
	.st24{opacity:0.52;mask:url(#SVGID_12_);fill:#F2F2F2;}
	.st25{filter:url(#Adobe_OpacityMaskFilter_12_);}
	.st26{opacity:0.52;mask:url(#SVGID_13_);fill:#F2F2F2;}
	.st27{filter:url(#Adobe_OpacityMaskFilter_13_);}
	.st28{opacity:0.53;mask:url(#SVGID_14_);fill:#F2F2F2;}
	.st29{filter:url(#Adobe_OpacityMaskFilter_14_);}
	.st30{opacity:0.54;mask:url(#SVGID_15_);fill:#F2F2F2;}
	.st31{filter:url(#Adobe_OpacityMaskFilter_15_);}
	.st32{opacity:0.54;mask:url(#SVGID_16_);fill:#F2F2F2;}
	.st33{filter:url(#Adobe_OpacityMaskFilter_16_);}
	.st34{opacity:0.58;mask:url(#SVGID_17_);fill:#F2F2F2;}
	.st35{filter:url(#Adobe_OpacityMaskFilter_17_);}
	.st36{opacity:0.54;mask:url(#SVGID_18_);fill:#F2F2F2;}
	.st37{filter:url(#Adobe_OpacityMaskFilter_18_);}
	.st38{opacity:0.55;mask:url(#SVGID_19_);fill:#F2F2F2;}
	.st39{filter:url(#Adobe_OpacityMaskFilter_19_);}
	.st40{opacity:0.5;mask:url(#SVGID_20_);fill:#F2F2F2;}
	.st41{filter:url(#Adobe_OpacityMaskFilter_20_);}
	.st42{opacity:0.52;mask:url(#SVGID_21_);fill:#F2F2F2;}
	.st43{filter:url(#Adobe_OpacityMaskFilter_21_);}
	.st44{opacity:0.54;mask:url(#SVGID_22_);fill:#F2F2F2;}
	.st45{filter:url(#Adobe_OpacityMaskFilter_22_);}
	.st46{opacity:0.5;mask:url(#SVGID_23_);fill:#F2F2F2;}
	.st47{filter:url(#Adobe_OpacityMaskFilter_23_);}
	.st48{opacity:0.38;mask:url(#SVGID_24_);fill:#F2F2F2;}
	.st49{filter:url(#Adobe_OpacityMaskFilter_24_);}
	.st50{opacity:0.5;mask:url(#SVGID_25_);fill:#F2F2F2;}
	.st51{fill:#FBB317;}
	.st52{fill:#4779BD;}
	.st53{fill:#F26F8A;}
	.st54{fill:#F6A1AE;}
</style>
<g id="Layer_1">
	<rect class="st0" width="1920" height="1079.5"/>
	<defs>
		<filter id="Adobe_OpacityMaskFilter" filterUnits="userSpaceOnUse" x="1530" y="894.5" width="304.3" height="234.7">
			
				<feColorMatrix  type="matrix" values="-1 0 0 0 1  0 -1 0 0 1  0 0 -1 0 1  0 0 0 1 0" color-interpolation-filters="sRGB" result="source"/>
			<feFlood  style="flood-color:white;flood-opacity:1" result="back"/>
			<feBlend  in="source" in2="back" mode="normal"/>
		</filter>
	</defs>
	<mask maskUnits="userSpaceOnUse" x="1530" y="894.5" width="304.3" height="234.7" id="SVGID_1_">
		<g class="st1">
		</g>
	</mask>
	<path class="st2" d="M1634.3,894.9c0,0,66.7-5.4,104.5,26.4c27.6,23.2,67.3,87,86.7,119.7c11.9,20,11.8,45.2-1.1,64.6
		c-8.5,12.8-22.7,23.4-46.3,23.6c-42.2,0.5-138.2-34.4-191.8-55.2c-30.3-11.8-51.7-39.2-55.5-71.5c-2.3-19.8,0-41.2,14.1-57.5
		C1580.1,903.9,1634.3,894.9,1634.3,894.9z"/>
	<defs>
		<filter id="Adobe_OpacityMaskFilter_1_" filterUnits="userSpaceOnUse" x="197.4" y="478.3" width="152.3" height="181.7">
			
				<feColorMatrix  type="matrix" values="-1 0 0 0 1  0 -1 0 0 1  0 0 -1 0 1  0 0 0 1 0" color-interpolation-filters="sRGB" result="source"/>
			<feFlood  style="flood-color:white;flood-opacity:1" result="back"/>
			<feBlend  in="source" in2="back" mode="normal"/>
		</filter>
	</defs>
	<mask maskUnits="userSpaceOnUse" x="197.4" y="478.3" width="152.3" height="181.7" id="SVGID_2_">
		<g class="st3">
		</g>
	</mask>
	<path class="st4" d="M287.8,481.4c0,0-50.3-19.2-82.9,38.5c-22.4,39.8,10.6,85.9,33.4,110.7c15.8,17.2,37.5,28.1,60.9,29.3
		c7.8,0.4,16-0.1,24.1-2.4C355.8,648.6,372.1,528.8,287.8,481.4z"/>
	<defs>
		<filter id="Adobe_OpacityMaskFilter_2_" filterUnits="userSpaceOnUse" x="1427.4" y="299.5" width="307.7" height="303.3">
			
				<feColorMatrix  type="matrix" values="-1 0 0 0 1  0 -1 0 0 1  0 0 -1 0 1  0 0 0 1 0" color-interpolation-filters="sRGB" result="source"/>
			<feFlood  style="flood-color:white;flood-opacity:1" result="back"/>
			<feBlend  in="source" in2="back" mode="normal"/>
		</filter>
	</defs>
	<mask maskUnits="userSpaceOnUse" x="1427.4" y="299.5" width="307.7" height="303.3" id="SVGID_3_">
		<g class="st5">
		</g>
	</mask>
	<path class="st6" d="M1735.1,424.5c0,0,6.1-97.5-111.4-122.7c-81-17.4-142.9,64.8-173.6,117.6c-21.3,36.6-28.3,80.2-17.9,121.2
		c3.5,13.7,8.9,27.6,17.1,40.5C1482.3,632.8,1698.6,596.2,1735.1,424.5z"/>
	<defs>
		<filter id="Adobe_OpacityMaskFilter_3_" filterUnits="userSpaceOnUse" x="-78.4" y="660.7" width="375.1" height="161.9">
			
				<feColorMatrix  type="matrix" values="-1 0 0 0 1  0 -1 0 0 1  0 0 -1 0 1  0 0 0 1 0" color-interpolation-filters="sRGB" result="source"/>
			<feFlood  style="flood-color:white;flood-opacity:1" result="back"/>
			<feBlend  in="source" in2="back" mode="normal"/>
		</filter>
	</defs>
	<mask maskUnits="userSpaceOnUse" x="-78.4" y="660.7" width="375.1" height="161.9" id="SVGID_4_">
		<g class="st7">
		</g>
	</mask>
	<path class="st8" d="M-73,681.3c9.2-14.4,25.9-22,42.8-20.4c44.8,4.2,153.9,16.7,216.4,42.9c80,33.5,128.5,82.6,104,104.5
		c-24.4,21.9-132.8,12.1-132.8,12.1S10,791-28.6,758.6C-59.7,732.5-91.4,710.1-73,681.3z"/>
	<defs>
		<filter id="Adobe_OpacityMaskFilter_4_" filterUnits="userSpaceOnUse" x="1340.2" y="786.3" width="98.4" height="117.5">
			
				<feColorMatrix  type="matrix" values="-1 0 0 0 1  0 -1 0 0 1  0 0 -1 0 1  0 0 0 1 0" color-interpolation-filters="sRGB" result="source"/>
			<feFlood  style="flood-color:white;flood-opacity:1" result="back"/>
			<feBlend  in="source" in2="back" mode="normal"/>
		</filter>
	</defs>
	<mask maskUnits="userSpaceOnUse" x="1340.2" y="786.3" width="98.4" height="117.5" id="SVGID_5_">
		<g class="st9">
		</g>
	</mask>
	<path class="st10" d="M1398.6,788.3c0,0-32.5-12.4-53.6,24.9c-14.5,25.7,6.9,55.5,21.6,71.6c10.2,11.1,24.3,18.1,39.4,18.9
		c5,0.3,10.3-0.1,15.6-1.5C1442.6,896.4,1453.1,818.9,1398.6,788.3z"/>
	<defs>
		<filter id="Adobe_OpacityMaskFilter_5_" filterUnits="userSpaceOnUse" x="1626.9" y="569.4" width="348.9" height="216.3">
			
				<feColorMatrix  type="matrix" values="-1 0 0 0 1  0 -1 0 0 1  0 0 -1 0 1  0 0 0 1 0" color-interpolation-filters="sRGB" result="source"/>
			<feFlood  style="flood-color:white;flood-opacity:1" result="back"/>
			<feBlend  in="source" in2="back" mode="normal"/>
		</filter>
	</defs>
	<mask maskUnits="userSpaceOnUse" x="1626.9" y="569.4" width="348.9" height="216.3" id="SVGID_6_">
		<g class="st11">
		</g>
	</mask>
	<path class="st12" d="M1627.9,759.1c-3.6-16.7,3-33.9,16.2-44.6c34.9-28.4,121.4-96.1,184.2-121.4c80.5-32.3,149.5-31.3,147.5,1.4
		c-2,32.7-86.1,101.9-86.1,101.9s-125.7,82.6-175.9,86.6C1673.3,786.2,1635,792.5,1627.9,759.1z"/>
	<defs>
		<filter id="Adobe_OpacityMaskFilter_6_" filterUnits="userSpaceOnUse" x="1500" y="-56.4" width="386.6" height="326.2">
			
				<feColorMatrix  type="matrix" values="-1 0 0 0 1  0 -1 0 0 1  0 0 -1 0 1  0 0 0 1 0" color-interpolation-filters="sRGB" result="source"/>
			<feFlood  style="flood-color:white;flood-opacity:1" result="back"/>
			<feBlend  in="source" in2="back" mode="normal"/>
		</filter>
	</defs>
	<mask maskUnits="userSpaceOnUse" x="1500" y="-56.4" width="386.6" height="326.2" id="SVGID_7_">
		<g class="st13">
		</g>
	</mask>
	<path class="st14" d="M1504.6,40.6c0,0-32.6,58.8,76,155c60,53.2,146.6,69.8,212.1,74c79.8,5.1,124.6-90.4,69.6-148.3
		c-14.3-15.1-33.8-29.6-60.2-42.6c0,0-97.6-10.4-136.9-96C1625.8-103,1495-31.5,1504.6,40.6z"/>
	<defs>
		<filter id="Adobe_OpacityMaskFilter_7_" filterUnits="userSpaceOnUse" x="350" y="822.5" width="386.6" height="326.2">
			
				<feColorMatrix  type="matrix" values="-1 0 0 0 1  0 -1 0 0 1  0 0 -1 0 1  0 0 0 1 0" color-interpolation-filters="sRGB" result="source"/>
			<feFlood  style="flood-color:white;flood-opacity:1" result="back"/>
			<feBlend  in="source" in2="back" mode="normal"/>
		</filter>
	</defs>
	<mask maskUnits="userSpaceOnUse" x="350" y="822.5" width="386.6" height="326.2" id="SVGID_8_">
		<g class="st15">
		</g>
	</mask>
	<path class="st16" d="M354.6,919.5c0,0-32.6,58.8,76,155c60,53.2,146.6,69.8,212.1,74c79.8,5.1,124.6-90.4,69.6-148.3
		c-14.3-15.1-33.8-29.6-60.2-42.6c0,0-97.6-10.4-136.9-96S345.1,847.4,354.6,919.5z"/>
	<defs>
		<filter id="Adobe_OpacityMaskFilter_8_" filterUnits="userSpaceOnUse" x="273.1" y="156.3" width="417.1" height="264.6">
			
				<feColorMatrix  type="matrix" values="-1 0 0 0 1  0 -1 0 0 1  0 0 -1 0 1  0 0 0 1 0" color-interpolation-filters="sRGB" result="source"/>
			<feFlood  style="flood-color:white;flood-opacity:1" result="back"/>
			<feBlend  in="source" in2="back" mode="normal"/>
		</filter>
	</defs>
	<mask maskUnits="userSpaceOnUse" x="273.1" y="156.3" width="417.1" height="264.6" id="SVGID_9_">
		<g class="st17">
		</g>
	</mask>
	<path class="st18" d="M377,158.1c-40.6-8.4-81.6,13.4-96.5,52.1c-5.2,13.5-8.4,29.1-7.2,45.9c4.1,56.6,81,157.2,125.4,163.2
		c44.4,5.9,143.6-3,168.7-37c21.8-29.4,81-86.7,97.7-94.7c16.7-8,52-124.3-11-130.2s-120.9,30.8-172.6,25
		C450.7,178.8,411.8,165.3,377,158.1z"/>
	<defs>
		<filter id="Adobe_OpacityMaskFilter_9_" filterUnits="userSpaceOnUse" x="909.1" y="908.6" width="369" height="367.3">
			
				<feColorMatrix  type="matrix" values="-1 0 0 0 1  0 -1 0 0 1  0 0 -1 0 1  0 0 0 1 0" color-interpolation-filters="sRGB" result="source"/>
			<feFlood  style="flood-color:white;flood-opacity:1" result="back"/>
			<feBlend  in="source" in2="back" mode="normal"/>
		</filter>
	</defs>
	<mask maskUnits="userSpaceOnUse" x="909.1" y="908.6" width="369" height="367.3" id="SVGID_10_">
		<g class="st19">
		</g>
	</mask>
	<path class="st20" d="M1067,1222.1c15.3,38.5,56.1,60.8,96.6,51.9c14.1-3.1,28.9-8.9,42.3-19.2c45-34.5,86.8-154.2,67.3-194.5
		c-19.5-40.3-81.4-118.3-123.7-120.6c-36.5-2-116.9-20-132.8-29.5c-15.9-9.6-132.4,24.9-102.7,80.8c29.7,55.9,92.2,84.1,115.8,130.4
		C1043.9,1149.1,1053.9,1189,1067,1222.1z"/>
	<defs>
		<filter id="Adobe_OpacityMaskFilter_10_" filterUnits="userSpaceOnUse" x="1108.9" y="124.1" width="371.9" height="297">
			
				<feColorMatrix  type="matrix" values="-1 0 0 0 1  0 -1 0 0 1  0 0 -1 0 1  0 0 0 1 0" color-interpolation-filters="sRGB" result="source"/>
			<feFlood  style="flood-color:white;flood-opacity:1" result="back"/>
			<feBlend  in="source" in2="back" mode="normal"/>
		</filter>
	</defs>
	<mask maskUnits="userSpaceOnUse" x="1108.9" y="124.1" width="371.9" height="297" id="SVGID_11_">
		<g class="st21">
		</g>
	</mask>
	<path class="st22" d="M1400.3,154c0,0-84-54.1-128.7-16.8c-44.7,37.3-79,132.8-124.2,142.9c-45.1,10-59.5,114.2,6,134.7
		c45.7,14.3,125.1,1.4,168.9-7.7c20-4.2,38.4-14,53-28.4c18.3-18,44.6-44.1,64.8-64.7C1474.5,278.9,1527.1,207.8,1400.3,154z"/>
	<defs>
		<filter id="Adobe_OpacityMaskFilter_11_" filterUnits="userSpaceOnUse" x="622.7" y="751.4" width="177.4" height="115.2">
			
				<feColorMatrix  type="matrix" values="-1 0 0 0 1  0 -1 0 0 1  0 0 -1 0 1  0 0 0 1 0" color-interpolation-filters="sRGB" result="source"/>
			<feFlood  style="flood-color:white;flood-opacity:1" result="back"/>
			<feBlend  in="source" in2="back" mode="normal"/>
		</filter>
	</defs>
	<mask maskUnits="userSpaceOnUse" x="622.7" y="751.4" width="177.4" height="115.2" id="SVGID_12_">
		<g class="st23">
		</g>
	</mask>
	<path class="st24" d="M632.9,823.3c0,0,13.7,43.5,40.3,43.4c26.6-0.1,66.5-23.7,85.2-14c18.8,9.6,54.2-22.8,37.1-49.1
		c-11.9-18.3-43.5-36.9-61.6-46.5c-8.3-4.4-17.6-6.3-26.9-5.5c-11.7,1-28.5,2.5-41.6,3.9C643.2,757.8,604,767.4,632.9,823.3z"/>
	<defs>
		<filter id="Adobe_OpacityMaskFilter_12_" filterUnits="userSpaceOnUse" x="1185.4" y="489.9" width="159.2" height="228.7">
			
				<feColorMatrix  type="matrix" values="-1 0 0 0 1  0 -1 0 0 1  0 0 -1 0 1  0 0 0 1 0" color-interpolation-filters="sRGB" result="source"/>
			<feFlood  style="flood-color:white;flood-opacity:1" result="back"/>
			<feBlend  in="source" in2="back" mode="normal"/>
		</filter>
	</defs>
	<mask maskUnits="userSpaceOnUse" x="1185.4" y="489.9" width="159.2" height="228.7" id="SVGID_13_">
		<g class="st25">
		</g>
	</mask>
	<path class="st26" d="M1267,713c0,0,61.2-6.5,68.2-41.6s-13.4-94.3,4.4-116.5c17.8-22.2-15.5-77.8-54.9-62.3
		c-27.4,10.8-60.5,47.6-78.1,68.9c-8,9.7-13,21.6-14.5,34.1c-1.8,15.7-4.4,38.4-6.1,56.1C1183.2,681.7,1185.4,736.2,1267,713z"/>
	<defs>
		<filter id="Adobe_OpacityMaskFilter_13_" filterUnits="userSpaceOnUse" x="-88" y="845.2" width="182" height="179.1">
			
				<feColorMatrix  type="matrix" values="-1 0 0 0 1  0 -1 0 0 1  0 0 -1 0 1  0 0 0 1 0" color-interpolation-filters="sRGB" result="source"/>
			<feFlood  style="flood-color:white;flood-opacity:1" result="back"/>
			<feBlend  in="source" in2="back" mode="normal"/>
		</filter>
	</defs>
	<mask maskUnits="userSpaceOnUse" x="-88" y="845.2" width="182" height="179.1" id="SVGID_14_">
		<g class="st27">
		</g>
	</mask>
	<path class="st28" d="M-82.2,886.9c0,0,41.4-51.8,75.5-40c34,11.8,44.4,65.1,56.2,71s41.4,34,44.4,57.7s-58.3,65.8-108.3,41.1
		S-103,928.4-82.2,886.9z"/>
	<defs>
		<filter id="Adobe_OpacityMaskFilter_14_" filterUnits="userSpaceOnUse" x="174.9" y="982" width="159.9" height="294.9">
			
				<feColorMatrix  type="matrix" values="-1 0 0 0 1  0 -1 0 0 1  0 0 -1 0 1  0 0 0 1 0" color-interpolation-filters="sRGB" result="source"/>
			<feFlood  style="flood-color:white;flood-opacity:1" result="back"/>
			<feBlend  in="source" in2="back" mode="normal"/>
		</filter>
	</defs>
	<mask maskUnits="userSpaceOnUse" x="174.9" y="982" width="159.9" height="294.9" id="SVGID_15_">
		<g class="st29">
		</g>
	</mask>
	<path class="st30" d="M184.3,1083.2c0,0-22.8-82.8,2.5-91.9c25.2-9.1,58.8-32.6,90.4,61.2s57.6,196,57.6,196s-3.8,41.9-49.9,23.8
		s-62.2-66.2-62.2-66.2L184.3,1083.2z"/>
	<defs>
		<filter id="Adobe_OpacityMaskFilter_15_" filterUnits="userSpaceOnUse" x="900.5" y="708.9" width="304.9" height="156">
			
				<feColorMatrix  type="matrix" values="-1 0 0 0 1  0 -1 0 0 1  0 0 -1 0 1  0 0 0 1 0" color-interpolation-filters="sRGB" result="source"/>
			<feFlood  style="flood-color:white;flood-opacity:1" result="back"/>
			<feBlend  in="source" in2="back" mode="normal"/>
		</filter>
	</defs>
	<mask maskUnits="userSpaceOnUse" x="900.5" y="708.9" width="304.9" height="156" id="SVGID_16_">
		<g class="st31">
		</g>
	</mask>
	<path class="st32" d="M971.8,813.3c0,0-79.2-33.3-70.7-58.8c8.5-25.4,10.8-66.3,104.1-33.2c93.3,33.1,189.6,76,189.6,76
		s30.5,28.9-12.1,54c-42.7,25.1-90.5,7.9-90.5,7.9L971.8,813.3z"/>
	<defs>
		<filter id="Adobe_OpacityMaskFilter_16_" filterUnits="userSpaceOnUse" x="426.7" y="480" width="205.4" height="283.5">
			
				<feColorMatrix  type="matrix" values="-1 0 0 0 1  0 -1 0 0 1  0 0 -1 0 1  0 0 0 1 0" color-interpolation-filters="sRGB" result="source"/>
			<feFlood  style="flood-color:white;flood-opacity:1" result="back"/>
			<feBlend  in="source" in2="back" mode="normal"/>
		</filter>
	</defs>
	<mask maskUnits="userSpaceOnUse" x="426.7" y="480" width="205.4" height="283.5" id="SVGID_17_">
		<g class="st33">
		</g>
	</mask>
	<path class="st34" d="M537.9,480.4c0,0-69.4-6.6-85.3,97.1c-9.4,61.7-18.5,98.9-24.4,118.9c-4,13.7-0.1,28.4,10,38.4
		c20,19.7,55.7,44,93.1,16.3c56.6-41.9,100.8-104.8,100.7-161.9C632,532.1,608.2,475,537.9,480.4z"/>
	<defs>
		<filter id="Adobe_OpacityMaskFilter_17_" filterUnits="userSpaceOnUse" x="1365.3" y="1074.2" width="269.7" height="216.8">
			
				<feColorMatrix  type="matrix" values="-1 0 0 0 1  0 -1 0 0 1  0 0 -1 0 1  0 0 0 1 0" color-interpolation-filters="sRGB" result="source"/>
			<feFlood  style="flood-color:white;flood-opacity:1" result="back"/>
			<feBlend  in="source" in2="back" mode="normal"/>
		</filter>
	</defs>
	<mask maskUnits="userSpaceOnUse" x="1365.3" y="1074.2" width="269.7" height="216.8" id="SVGID_18_">
		<g class="st35">
		</g>
	</mask>
	<path class="st36" d="M1415.3,1183.9c0,0-63.8-57.5-47.4-78.7c16.4-21.2,32-59.1,109.2,2.9c77.2,62,154,134.1,154,134.1
		s19.3,37.3-29.2,47c-48.6,9.6-88-22.3-88-22.3L1415.3,1183.9z"/>
	<defs>
		<filter id="Adobe_OpacityMaskFilter_18_" filterUnits="userSpaceOnUse" x="695.6" y="369.3" width="353.2" height="308.6">
			
				<feColorMatrix  type="matrix" values="-1 0 0 0 1  0 -1 0 0 1  0 0 -1 0 1  0 0 0 1 0" color-interpolation-filters="sRGB" result="source"/>
			<feFlood  style="flood-color:white;flood-opacity:1" result="back"/>
			<feBlend  in="source" in2="back" mode="normal"/>
		</filter>
	</defs>
	<mask maskUnits="userSpaceOnUse" x="695.6" y="369.3" width="353.2" height="308.6" id="SVGID_19_">
		<g class="st37">
		</g>
	</mask>
	<path class="st38" d="M752.3,660.5c0,0,40.5,47.8,158.1-14.9c65-34.7,106.8-104.6,131.3-160.2c29.7-67.7-38.6-138.3-106.2-109.5
		c-17.6,7.5-36.3,19.7-56,38.3c0,0-40,81.5-126.4,87.4S686.9,645,752.3,660.5z"/>
	<defs>
		<filter id="Adobe_OpacityMaskFilter_19_" filterUnits="userSpaceOnUse" x="751.2" y="259.1" width="98.4" height="117.5">
			
				<feColorMatrix  type="matrix" values="-1 0 0 0 1  0 -1 0 0 1  0 0 -1 0 1  0 0 0 1 0" color-interpolation-filters="sRGB" result="source"/>
			<feFlood  style="flood-color:white;flood-opacity:1" result="back"/>
			<feBlend  in="source" in2="back" mode="normal"/>
		</filter>
	</defs>
	<mask maskUnits="userSpaceOnUse" x="751.2" y="259.1" width="98.4" height="117.5" id="SVGID_20_">
		<g class="st39">
		</g>
	</mask>
	<path class="st40" d="M809.6,261.1c0,0-32.5-12.4-53.6,24.9c-14.5,25.7,6.9,55.5,21.6,71.6c10.2,11.1,24.3,18.1,39.4,18.9
		c5,0.3,10.3-0.1,15.6-1.5C853.6,369.2,864.1,291.7,809.6,261.1z"/>
	<defs>
		<filter id="Adobe_OpacityMaskFilter_20_" filterUnits="userSpaceOnUse" x="916.2" y="106.3" width="177.4" height="115.2">
			
				<feColorMatrix  type="matrix" values="-1 0 0 0 1  0 -1 0 0 1  0 0 -1 0 1  0 0 0 1 0" color-interpolation-filters="sRGB" result="source"/>
			<feFlood  style="flood-color:white;flood-opacity:1" result="back"/>
			<feBlend  in="source" in2="back" mode="normal"/>
		</filter>
	</defs>
	<mask maskUnits="userSpaceOnUse" x="916.2" y="106.3" width="177.4" height="115.2" id="SVGID_21_">
		<g class="st41">
		</g>
	</mask>
	<path class="st42" d="M926.4,178.2c0,0,13.7,43.5,40.3,43.4c26.6-0.1,66.5-23.7,85.2-14c18.8,9.6,54.2-22.8,37.1-49.1
		c-11.9-18.3-43.5-36.9-61.6-46.5c-8.3-4.4-17.6-6.3-26.9-5.5c-11.7,1-28.5,2.5-41.6,3.9C936.7,112.7,897.5,122.4,926.4,178.2z"/>
	<defs>
		<filter id="Adobe_OpacityMaskFilter_21_" filterUnits="userSpaceOnUse" x="602.1" y="-108.6" width="269.7" height="216.8">
			
				<feColorMatrix  type="matrix" values="-1 0 0 0 1  0 -1 0 0 1  0 0 -1 0 1  0 0 0 1 0" color-interpolation-filters="sRGB" result="source"/>
			<feFlood  style="flood-color:white;flood-opacity:1" result="back"/>
			<feBlend  in="source" in2="back" mode="normal"/>
		</filter>
	</defs>
	<mask maskUnits="userSpaceOnUse" x="602.1" y="-108.6" width="269.7" height="216.8" id="SVGID_22_">
		<g class="st43">
		</g>
	</mask>
	<path class="st44" d="M652.2,1.2c0,0-63.8-57.5-47.4-78.7s32-59.1,109.2,2.9S868,59.4,868,59.4s19.3,37.3-29.2,47
		c-48.6,9.6-88-22.3-88-22.3L652.2,1.2z"/>
	<defs>
		<filter id="Adobe_OpacityMaskFilter_22_" filterUnits="userSpaceOnUse" x="1094" y="-91.2" width="152.3" height="181.7">
			
				<feColorMatrix  type="matrix" values="-1 0 0 0 1  0 -1 0 0 1  0 0 -1 0 1  0 0 0 1 0" color-interpolation-filters="sRGB" result="source"/>
			<feFlood  style="flood-color:white;flood-opacity:1" result="back"/>
			<feBlend  in="source" in2="back" mode="normal"/>
		</filter>
	</defs>
	<mask maskUnits="userSpaceOnUse" x="1094" y="-91.2" width="152.3" height="181.7" id="SVGID_23_">
		<g class="st45">
		</g>
	</mask>
	<path class="st46" d="M1184.3-88.1c0,0-50.3-19.2-82.9,38.5C1079-9.9,1112.1,36.2,1134.8,61c15.8,17.2,37.5,28.1,60.9,29.3
		c7.8,0.4,16-0.1,24.1-2.4C1252.4,79.1,1268.7-40.8,1184.3-88.1z"/>
	<defs>
		<filter id="Adobe_OpacityMaskFilter_23_" filterUnits="userSpaceOnUse" x="102.9" y="-144.4" width="304.3" height="234.7">
			
				<feColorMatrix  type="matrix" values="-1 0 0 0 1  0 -1 0 0 1  0 0 -1 0 1  0 0 0 1 0" color-interpolation-filters="sRGB" result="source"/>
			<feFlood  style="flood-color:white;flood-opacity:1" result="back"/>
			<feBlend  in="source" in2="back" mode="normal"/>
		</filter>
	</defs>
	<mask maskUnits="userSpaceOnUse" x="102.9" y="-144.4" width="304.3" height="234.7" id="SVGID_24_">
		<g class="st47">
		</g>
	</mask>
	<path class="st48" d="M207.2-144c0,0,66.7-5.4,104.5,26.4c27.6,23.2,67.3,87,86.7,119.7c11.9,20,11.8,45.2-1.1,64.6
		c-8.5,12.8-22.7,23.4-46.3,23.6c-42.2,0.5-138.2-34.4-191.8-55.2c-30.3-11.8-51.7-39.2-55.5-71.5c-2.3-19.8,0-41.2,14.1-57.5
		C153-135,207.2-144,207.2-144z"/>
	<defs>
		<filter id="Adobe_OpacityMaskFilter_24_" filterUnits="userSpaceOnUse" x="-432.2" y="181.5" width="307.7" height="303.3">
			
				<feColorMatrix  type="matrix" values="-1 0 0 0 1  0 -1 0 0 1  0 0 -1 0 1  0 0 0 1 0" color-interpolation-filters="sRGB" result="source"/>
			<feFlood  style="flood-color:white;flood-opacity:1" result="back"/>
			<feBlend  in="source" in2="back" mode="normal"/>
		</filter>
	</defs>
	<mask maskUnits="userSpaceOnUse" x="-432.2" y="181.5" width="307.7" height="303.3" id="SVGID_25_">
		<g class="st49">
		</g>
	</mask>
	<path class="st50" d="M-124.6,306.6c0,0,6.1-97.5-111.4-122.7c-81-17.4-142.9,64.8-173.6,117.6c-21.3,36.6-28.3,80.2-17.9,121.2
		c3.5,13.7,8.9,27.6,17.1,40.5C-377.4,514.9-161,478.3-124.6,306.6z"/>
</g>
<g id="Layer_4">
	<path class="st51" d="M-595,614.2c0,0,17.2,57.7,61.8,61.3s61.2-61.3,61.2-61.3s19.7-247.9,231.5-231c0,0,173.6,45.5,172.4,218.3
		s105.6,144,105.6,144s86.3-11.8,84.7-146.4C120.7,464.5,255,506.4,255,506.4s91,29.5,132.9-83.6c20-54.1,78-84.6,133.8-69.5
		c24.5,6.6,52.5,20,84,43.5C719.2,481.8,715.5,870.1,711.5,992c-1,30.9,7.4,61.4,24.9,87c16.6,24.3,39.8,46.8,66.7,39.7
		c17.2-4.5,31.6-17.2,43.1-32.3c25.9-33.9,35.4-77.5,27.2-119.3c-24.5-126-88.9-480.3-52.1-546.1c0,0,0.3-0.3,0.9-0.9
		c36.9-35.7,98.7-14.8,106.7,35.8c7.6,47.7,13.9,120.7,3.1,204.8c0,0-5.9,59.7,48.4,62.3c31.7,1.5,43.2-19.9,47.4-38.1
		c2.5-10.7,2.5-21.9,0.6-32.7c-10.3-58.4-68.9-399.2-42.7-418.8c28.7-21.5,80-53.6,64.4-229.3L-594,4.4L-595,614.2z"/>
</g>
<g id="Layer_5">
	<path class="st52" d="M-485.6,450.3c0,0,102.4,123.4,65.1,371.1c-0.6,4.1-1.1,8.2-1.3,12.3c-1.2,21.1-2.7,82.4,20.6,87
		c28.1,5.5,44.9-19.8,44.7-80.8c-0.3-61-38.7-315.7,0-351s140.2-4.4,137.6,87.3c-2.5,91.7,81.7,391.2,76.9,451.9
		s30.3,135.8,96.1,112C20,1116.3,7,949.3-2.8,878.9S-24.9,725-24.7,700.5c0.3-35.9,7.1-71.4,59.4-74c52.4-2.6,83.9,77.7,130.4,87
		c46.5,9.3,86.3-2.7,110.7-38.1c23.4-33.9-29.6-295.5-15.3-312.9c17.5-21.2,136.5-80.3,172.6,52c29.6,108.5,27.1,300.2,25.2,365.8
		c-0.7,26.2,5.1,52.3,17.5,75.4c14,26,37.8,51.4,76.8,48.9c68.2-4.3,54.3-96.6,49.7-119.6c-1.2-6-2.2-12.1-3.2-18.2
		c-8.3-54.7-36.8-263.6,7.5-282.1c0.7-0.3,1.4-0.6,2.1-0.9c32.1-12.7,67.2,9.4,71.1,44.1c3,26.7,10.1,61.5,26,66.2
		c26.4,7.7,58.5-7.4,50.6-97.7s35.1-87.5,61.8-90c26-2.4,85.2-60.2,66.1-135.8c-1.2-4.9-2.2-9.8-2.7-14.9
		c-2.5-25.4-5.8-95.6,33.4-93.7c0,0,25.7-3.2,27.5,33.6c1.4,27.4-3.8,81.9-6.5,107.8c-1.4,13.2,2.3,26.5,10.7,36.6
		c4.7,5.7,10.6,10.1,17.4,9.8c18.2-0.9,27.4-24.8,27.1-32.1c-0.3-7.3-18.7-145.9-4.6-144.7c24.9,2.2,9.5-68.5,32.5-79.1
		c22.4-10.4,33.6-91.2,33.6-91.2H-484L-485.6,450.3z"/>
</g>
<g id="Layer_3">
	<path class="st53" d="M-433.6-1c0,0-33.9,165.9,64.6,203.6c2,0.8,4.1,1.4,6.2,2.1c10.3,3.1,73.8,28.3,64.5,174.7
		c-8.6,135-53,615.2-66.2,757.9c-4.4,46.9,22.1,91.7,65.6,108.7c8.9,3.5,18.7,5.9,29.5,6.7c22.6,1.8,42.5-6.8,59-19.3
		c34.5-25.9,53.6-67.7,52.1-111l-23.8-667.1c-1.9-52.1,39-96.3,90.6-96.6c18.4-0.1,38.2,5.4,58.1,20.6C29.3,427.1,3.4,810.4-7.3,940
		c-3.6,43.9,16.1,86.9,52.4,111.5c13.5,9.1,29.4,15.9,47.8,17.3c32.1,2.5,52.6-19.4,65.4-43.5c14.3-27,19.3-58,15-88.3
		c-15.4-110.1-66.8-491.1-40.7-517.8C163.1,388,260.4,311,337.4,379.4c62.7,55.7,95,79.1,141.9,82.2c45,2.9,83.6,33.4,97,76.4
		c13.5,43.3,21.4,110.7,12.1,215.8c0,0-9.9,94.6,82.7,104.7c55,6,69.8-35.9,72.7-71c1.7-20.1-0.4-40.4-5.8-59.9
		c-16.8-61-75.1-289.2-27.9-370.2c38.3-65.6,118.5-110.8,163.1-132c35-16.6,63.1-45.1,79.2-80.6c15.7-34.5,27.5-82.7,20.5-145.4"/>
</g>
<g id="Layer_2">
	<path class="st54" d="M-491,415.2c0,0,42.4,66.5,92.6,61.6c1.7-0.2,3.3-0.5,5-0.8c12.5-2.7,70.3-16.6,63,162.7
		c0,0,7.4,94,69.2,90.6c30.9-1.7,46.2-22.8,53.7-43.5c6.6-18,7.8-37.5,4.3-56.3c-8.3-44.3-27.6-169.2,18.5-171.7
		c0,0,70.6-16.9,75.4,32c0,0-0.1,335.3,0,426c0,15.4,3.2,30.6,9.7,44.6c7.9,17,21.7,34.3,44.5,32.6c46.4-3.3,47.6-65.5,47.1-70.9
		C-8.5,917.8-20.2,689-24.3,608c-1.4-27.4,19.6-51.3,47-52.3c3.9-0.1,7.8,0.2,11.9,1.1c32.4,7.2,50.6,21.3,53.5,37.1
		c0,0,15.9,49.4,3.7,105.4c-4,18.4-2.4,37.7,5.2,55c9,20.6,27.2,41.9,63.7,44.5c43.1,3.1,62-30.2,70.2-58
		c4.7-15.7,6.5-32.1,5.8-48.5l-8.1-202.6c-1.1-28.5,9.4-56.2,29.8-76.1c12.7-12.4,26.1-11.3,43.5-12.5c17.9-1.3,31.5,6.8,41.2,16.8
		c12.6,12.9,19.7,30.3,20.3,48.3c2.4,68.8,10.6,328,2.9,441.4c-2.6,37.6,13.5,74.3,43.6,97c20.7,15.6,48.5,25.3,84.4,15.5
		c1-0.3,1.9-0.5,2.9-0.8c62.2-18,100-80.9,87.9-144.4c-21.2-111.5-68.4-385.1-33.3-444c37.9-63.6,130.1-66.3,156.2-65.7
		c8.9,0.2,17.7-0.9,26.2-3.6c27.9-8.8,77.8-37.1,92.3-128.8c0,0,29.6-150.9,98.3-153.4s113.4-42,118.6-73.2H-437L-491,415.2z"/>
</g>
</svg>
